<?xml version="1.0" encoding="UTF-8" standalone="no"?>
<!-- Created with Inkscape (http://www.inkscape.org/) -->

<svg
   xmlns:dc="http://purl.org/dc/elements/1.1/"
   xmlns:cc="http://creativecommons.org/ns#"
   xmlns:rdf="http://www.w3.org/1999/02/22-rdf-syntax-ns#"
   xmlns:svg="http://www.w3.org/2000/svg"
   xmlns="http://www.w3.org/2000/svg"
   xmlns:xlink="http://www.w3.org/1999/xlink"
   xmlns:sodipodi="http://sodipodi.sourceforge.net/DTD/sodipodi-0.dtd"
   xmlns:inkscape="http://www.inkscape.org/namespaces/inkscape"
   inkscape:version="0.91 r13725"
   version="1.1"
   id="svg2"
   viewBox="0 0 256 256"
   height="256"
   width="256"
   sodipodi:docname="NU_uzorkovanje_icon.svg">
  <sodipodi:namedview
     inkscape:object-paths="false"
     inkscape:window-maximized="1"
     inkscape:window-y="24"
     inkscape:window-x="47"
     inkscape:window-height="876"
     inkscape:window-width="1553"
     showgrid="false"
     inkscape:current-layer="layer1"
     inkscape:document-units="px"
     inkscape:cy="241.37401"
     inkscape:cx="401.23997"
     inkscape:zoom="0.7022297"
     inkscape:pageshadow="2"
     inkscape:pageopacity="0.0"
     borderopacity="1.0"
     bordercolor="#666666"
     pagecolor="#ffffff"
     id="base"
     inkscape:snap-intersection-paths="true"
     units="px" />
  <defs
     id="defs4">
    <pattern
       patternTransform="matrix(11.749726,0,0,10.031854,-10.568818,28.967096)"
       id="pattern6075"
       xlink:href="#Strips4_1-76-379"
       inkscape:collect="always" />
    <pattern
       patternTransform="matrix(10,0,0,10,69.777738,41.297028)"
       id="pattern5770"
       xlink:href="#Strips4_1-790-539"
       inkscape:collect="always" />
    <pattern
       inkscape:collect="always"
       patternUnits="userSpaceOnUse"
       width="1.25"
       height="1"
       patternTransform="translate(0,0) scale(10,10)"
       id="Strips4_1-790-539"
       inkscape:stockid="Stripes 4:1">
      <rect
         style="fill:#0000d4;stroke:none"
         x="0"
         y="-0.5"
         width="1"
         height="2"
         id="rect5751" />
    </pattern>
    <pattern
       patternTransform="matrix(10,0,0,10,69.777738,41.297028)"
       id="pattern5770-747"
       xlink:href="#Strips4_1-790-539-450"
       inkscape:collect="always" />
    <pattern
       inkscape:collect="always"
       patternUnits="userSpaceOnUse"
       width="1.25"
       height="1"
       patternTransform="translate(0,0) scale(10,10)"
       id="Strips4_1-790-539-450"
       inkscape:stockid="Stripes 4:1">
      <rect
         style="fill:#0000d4;stroke:none"
         x="0"
         y="-0.5"
         width="1"
         height="2"
         id="rect6016" />
    </pattern>
    <pattern
       inkscape:collect="always"
       patternUnits="userSpaceOnUse"
       width="1.25"
       height="1"
       patternTransform="translate(0,0) scale(10,10)"
       id="Strips4_1-76-379"
       inkscape:stockid="Stripes 4:1">
      <rect
         style="fill:#0000d4;stroke:none"
         x="0"
         y="-0.5"
         width="1"
         height="2"
         id="rect6047" />
    </pattern>
    <pattern
       patternTransform="matrix(13.551164,0,0,14.719818,-306.11199,566.52154)"
       id="pattern5770-747-273"
       xlink:href="#Strips4_1-790-539-450-275"
       inkscape:collect="always" />
    <pattern
       inkscape:collect="always"
       patternUnits="userSpaceOnUse"
       width="1.25"
       height="1"
       patternTransform="translate(0,0) scale(10,10)"
       id="Strips4_1-790-539-450-275"
       inkscape:stockid="Stripes 4:1">
      <rect
         style="fill:#0000d4;stroke:none"
         x="0"
         y="-0.5"
         width="1"
         height="2"
         id="rect6051" />
    </pattern>
    <pattern
       patternTransform="matrix(9.1794734,0,0,7.3734122,82.57671,102.78989)"
       id="pattern6075-821"
       xlink:href="#Strips4_1-76-379-23"
       inkscape:collect="always" />
    <pattern
       inkscape:collect="always"
       patternUnits="userSpaceOnUse"
       width="1.25"
       height="1"
       patternTransform="translate(0,0) scale(10,10)"
       id="Strips4_1-76-379-23"
       inkscape:stockid="Stripes 4:1">
      <rect
         style="fill:#fcd915;stroke:none"
         x="0"
         y="-0.5"
         width="1"
         height="2"
         id="rect6154" />
    </pattern>
  </defs>
  <metadata
     id="metadata7">
    <rdf:RDF>
      <cc:Work
         rdf:about="">
        <dc:format>image/svg+xml</dc:format>
        <dc:type
           rdf:resource="http://purl.org/dc/dcmitype/StillImage" />
        <dc:title></dc:title>
      </cc:Work>
    </rdf:RDF>
  </metadata>
  <g
     inkscape:label="Layer 1"
     inkscape:groupmode="layer"
     id="layer1"
     transform="translate(0,-796.36216)">
    <g
       id="g6265">
      <g
         transform="matrix(1.05,0,0,1.4778096,-218.96047,495.86328)"
         id="g6185">
        <g
           id="g6182">
          <rect
             style="fill:url(#pattern6075-821);fill-opacity:1;stroke:none;stroke-width:4.21509933;stroke-linecap:round;stroke-linejoin:round;stroke-miterlimit:4;stroke-dasharray:none;stroke-dashoffset:0;stroke-opacity:1"
             id="rect4149"
             width="200"
             height="73.5"
             x="213.29568"
             y="221.43991" />
        </g>
        <rect
           style="fill:none;fill-opacity:1;stroke:#000000;stroke-width:2.18199992;stroke-linecap:round;stroke-linejoin:round;stroke-miterlimit:4;stroke-dasharray:none;stroke-dashoffset:0;stroke-opacity:1"
           id="rect6180"
           width="197.01848"
           height="1.6910673"
           x="214.78644"
           y="221.57607" />
      </g>
      <path
         id="path4143"
         title="t exp(-pow(t,2))"
         d="m -44.124962,1015.5662 c 0.383715,-8e-4 0.767674,0 1.151265,0 0.383932,-5e-4 0.767646,0 1.151523,0 0.383673,-5e-4 0.76751,0 1.151333,0 0.383645,-4e-4 0.767469,0 1.151333,0 0.383822,-4e-4 0.767563,0 1.151263,0 0.383783,0 0.767469,0 1.151169,0 0.383945,0 0.767674,0 1.151565,0 0.383891,0 0.76748,0 1.151318,0 0.383851,0 0.767522,0 1.151306,0 0.383686,-9e-4 0.767577,0 1.151401,0 0.383807,0 0.76744,0 1.151236,0 0.383713,0 0.767673,0 1.151345,0 0.383728,0 0.767579,0 1.151387,-0.015 0.383728,0 0.7677,0 1.151292,-0.015 0.383878,0 0.76766,0 1.151428,-0.015 0.3837,0 0.767372,0 1.151346,-0.015 0.383713,0 0.767455,-0.015 1.151223,-0.017 0.383768,0 0.767673,-0.015 1.151483,-0.017 0.383713,0 0.767372,-0.015 1.151209,-0.018 0.383878,0 0.767523,-0.015 1.151345,-0.018 0.383809,0 0.767593,-0.017 1.151347,-0.02 0.383769,0 0.76755,-0.017 1.151251,-0.021 0.383823,0 0.767632,-0.017 1.151334,-0.024 0.384027,-0.015 0.767698,-0.018 1.151535,-0.024 0.383686,-0.015 0.767483,-0.02 1.151293,-0.027 0.383658,-0.015 0.767591,-0.02 1.151344,-0.03 0.383702,-0.015 0.767497,-0.021 1.151252,-0.033 0.383755,-0.015 0.767592,-0.023 1.151306,-0.036 0.383686,-0.017 0.76759,-0.026 1.151483,-0.039 0.3837,-0.017 0.7675512,-0.027 1.1512502,-0.042 0.383824,-0.017 0.7676601,-0.032 1.1513741,-0.045 0.383767,-0.018 0.767439,-0.035 1.151276,-0.051 0.383837,-0.02 0.767482,-0.036 1.151319,-0.056 0.383852,-0.02 0.767646,-0.039 1.151402,-0.061 0.383685,-0.021 0.767398,-0.042 1.151399,-0.067 0.383741,-0.024 0.76751,-0.045 1.151195,-0.071 0.383961,-0.026 0.767742,-0.051 1.151387,-0.077 0.383742,-0.027 0.76749596,-0.054 1.15131996,-0.083 0.38374,-0.03 0.7676597,-0.061 1.1512777,-0.091 0.38396004,-0.032 0.76774104,-0.065 1.15138604,-0.098 0.383796,-0.035 0.767563,-0.071 1.151415,-0.1052 0.383796,-0.038 0.767469,-0.076 1.151332,-0.1143 0.383633,-0.039 0.767578,-0.08 1.151332,-0.1232 0.383619,-0.042 0.767443,-0.088 1.151252,-0.1322 0.383903,-0.045 0.76759,-0.094 1.151414,-0.1428 0.383783,-0.051 0.767469,-0.1007 1.151373,-0.1566 0.383741,-0.054 0.767578,-0.1082 1.15132,-0.1677 0.383837,-0.059 0.767467,-0.1172 1.151291,-0.1795 0.383877,-0.063 0.767467,-0.1262 1.15129,-0.1932 0.383729,-0.068 0.76766,-0.1336 1.151387,-0.2073 0.383783,-0.072 0.767605,-0.1457 1.151347,-0.2224 0.383713,-0.077 0.767564,-0.1575 1.151305,-0.2383 0.383837,-0.082 0.767619,-0.1677 1.151318,-0.2554 0.38381,-0.088 0.767646,-0.1788 1.151416,-0.2728 0.383685,-0.094 0.767508,-0.1915 1.151264,-0.2916 0.383767,-0.1008 0.767674,-0.2045 1.151469,-0.3115 0.383618,-0.1068 0.767536,-0.218 1.151428,-0.3326 0.383645,-0.1126 0.767331,-0.232 1.151112,-0.354 0.383878,-0.1218 0.767578,-0.2474 1.151374,-0.377 0.383728,-0.1277 0.767483,-0.2633 1.151361,-0.401 0.383767,-0.1353 0.767481,-0.2799 1.151168,-0.4263 0.384041,-0.1458 0.76774,-0.2971 1.151564,-0.4525 0.383673,-0.157 0.76751,-0.3155 1.151414,-0.4803 0.383673,-0.1651 0.767402,-0.3344 1.15106,-0.5089 0.383906,-0.1748 0.76777,-0.3541 1.151276,-0.5387 0.383879,-0.1847 0.767812,-0.3747 1.151526,-0.5701 0.383851,-0.1954 0.767578,-0.396 1.151428,-0.6023 0.383686,-0.2061 0.767537,-0.4183 1.151319,-0.6361 0.383727,-0.2176 0.76755,-0.4411 1.151221,-0.6707 0.383823,-0.2294 0.76758,-0.4652 1.151484,-0.707 0.383577,-0.2419 0.767302,-0.4897 1.151263,-0.7442 0.383713,-0.2544 0.767579,-0.5153 1.151264,-0.7828 0.383879,-0.2673 0.767702,-0.5417 1.151444,-0.8226 0.383822,-0.2806 0.767508,-0.5685 1.151195,-0.8632 0.383892,-0.2949 0.767552,-0.5965 1.151401,-0.9056 0.383862,-0.30884 0.767522,-0.62504 1.151386,-0.94884 0.383715,-0.3232 0.767495,-0.65426 1.151304,-0.99255 0.383907,-0.33838 0.767579,-0.68454 1.151388,-1.0382 0.38362,-0.35365 0.767565,-0.7153 1.151469,-1.08433 0.38366,-0.36933 0.767332,-0.74645 1.151075,-1.13176 0.383848,-0.38491 0.767725,-0.7781 1.15133,-1.17948 0.383645,-0.40129 0.767728,-0.81086 1.151429,-1.22841 0.383823,-0.41776 0.767605,-0.84381 1.151319,-1.27804 0.383987,-0.43423 0.767456,-0.87685 1.151373,-1.32809 0.3837,-0.45141 0.76766,-0.91105 1.151388,-1.37909 0.38363,-0.46805 0.767453,-0.94498 1.151264,-1.43001 0.38385,-0.48534 0.767426,-0.97924 1.151249,-1.4817 0.383823,-0.50248 0.767647,-1.01335 1.151511,-1.53342 0.383686,-0.51961 0.76755,-1.04808 1.151358,-1.58513 0.383714,-0.53718 0.767607,-1.08278 1.151197,-1.63696 0.383864,-0.55448 0.767415,-1.11737 1.151442,-1.68883 0.383782,-0.57162 0.767374,-1.15179 1.151181,-1.74039 0.38381,-0.58859 0.767742,-1.18575 1.151348,-1.79134 0.383808,-0.60542 0.767659,-1.21957 1.15136,-1.84184 0.383863,-0.62209 0.767672,-1.25292 1.151495,-1.89173 0.383837,-0.63851 0.767632,-1.28571 1.151113,-1.94028 0.383945,-0.65518 0.767676,-1.31804 1.151482,-1.98839 0.383675,-0.67082 0.767429,-1.34914 1.151308,-2.03529 0.383796,-0.68584 0.767564,-1.37965 1.151401,-2.08052 0.383807,-0.70119 0.767509,-1.40927 1.151289,-2.12457 0.383728,-0.71531 0.767741,-1.43751 1.151468,-2.1665 0.383552,-0.72912 0.767266,-1.46472 1.151348,-2.20723 0.383767,-0.7419 0.767388,-1.49043 1.150895,-2.24496 0.383972,-0.75453 0.767906,-1.51536 1.151606,-2.28148 0.383947,-0.7661 0.767494,-1.53792 1.151579,-2.31485 0.383714,-0.77723 0.767454,-1.55941 1.151099,-2.34611 0.383743,-0.78716 0.767592,-1.57879 1.151306,-2.37467 0.383835,-0.79601 0.767604,-1.59624 1.151385,-2.40023 0.383783,-0.80383 0.767526,-1.61157 1.15132,-2.42247 0.383754,-0.8109 0.767715,-1.62514 1.151387,-2.44178 0.383823,-0.81684 0.767551,-1.6363 1.151401,-2.45782 0.38381,-0.82153 0.767509,-1.64499 1.151277,-2.47002 0.383714,-0.82512 0.767332,-1.65156 1.151413,-2.47894 0.383622,-0.82741 0.767257,-1.65561 1.151181,-2.48401 0.3838,-0.82811 0.767668,-1.65664 1.151427,-2.48465 0.383868,-0.8282 0.767545,-1.65562 1.151345,-2.48209 0.383709,-0.82622 0.76767,-1.65122 1.15131,-2.47465 0.38383,-0.8233 0.76754,-1.64476 1.15133,-2.46335 0.38392,-0.81877 0.76755,-1.63495 1.15115,-2.44773 0.38388,-0.81282 0.76775,-1.62225 1.15144,-2.42776 0.38384,-0.80537 0.7677,-1.60648 1.15146,-2.40305 0.3838,-0.79662 0.76754,-1.58822 1.1514,-2.37422 0.38359,-0.786 0.76751,-1.56646 1.15131,-2.3406 0.38354,-0.7743 0.76745,-1.54192 1.15135,-2.30269 0.38365,-0.76052 0.76738,-1.51399 1.15121,-2.25996 0.383888,-0.74559 0.767608,-1.48348 1.151368,-2.21276 0.38378,-0.72903 0.76747,-1.44966 1.15148,-2.16095 0.38382,-0.7114 0.76756,-1.4133 1.15101,-2.10497 0.38408,-0.69187 0.7677,-1.37354 1.15157,-2.04424 0.3838,-0.67103 0.76742,-1.33119 1.15117,-1.97956 0.38399,-0.64842 0.76768,-1.28545 1.15148,-1.91002 0.38393,-0.62484 0.76759,-1.23734 1.15126,-1.83711 0.38384,-0.59939 0.76762,-1.18604 1.15151,-1.75907 0.38382,-0.57319 0.7673,-1.13291 1.15121,-1.67811 0.3836,-0.54533 0.76776,-1.07665 1.15145,-1.593 0.38356,-0.51635 0.76733,-1.01792 1.15127,-1.50436 0.38377,-0.48615 0.76755,-0.95689 1.15138,-1.41174 0.38374,-0.45511 0.76755,-0.89412 1.15133,-1.31668 0.38384,-0.42268 0.76755,-0.82899 1.15133,-1.21813 0.38351,-0.38941 0.76743,-0.76158 1.1512,-1.11679 0.38392,-0.35502 0.76772,-0.69284 1.15137,-1.01285 0.38396,-0.31997 0.76756,-0.62214 1.1513,-0.90639 0.38375,-0.28431 0.76779,-0.55042 1.1514,-0.79804 0.38402,-0.24765 0.76762,-0.47688 1.15147,-0.68738 0.3836,-0.21083 0.76753,-0.40269 1.15124,-0.57552 0.38368,-0.17287 0.76749,-0.32721 1.15138,-0.46226 0.38362,-0.13317 0.76743,-0.25074 1.1513,-0.3474 0.3838,-0.0957 0.76773,-0.17379 1.1513,-0.23218 0.38378,-0.0588 0.76751,-0.0958 1.15141,-0.11498 0.38397,-0.0191 0.76727,-0.0191 1.15125,0 0.38392,0.0198 0.76764,0.0592 1.15141,0.11498 0.38359,0.059 0.76754,0.13273 1.15129,0.23218 0.38391,0.0958 0.76767,0.21256 1.15132,0.3474 0.38388,0.13241 0.76765,0.28922 1.15137,0.46226 0.38372,0.17303 0.76763,0.36489 1.15123,0.57552 0.38384,0.2105 0.76748,0.43975 1.15148,0.68738 0.38364,0.24758 0.76766,0.51377 1.15139,0.79804 0.38375,0.28422 0.76738,0.58646 1.15135,0.90639 0.38361,0.32 0.76743,0.65786 1.15131,1.01285 0.38379,0.35517 0.76768,0.72744 1.1512,1.11679 0.38377,0.38911 0.76752,0.7955 1.15136,1.21813 0.38377,0.42253 0.7676,0.8616 1.15129,1.31668 0.38388,0.45483 0.76762,0.92567 1.15141,1.41174 0.38394,0.4864 0.76777,0.98804 1.15131,1.50436 0.38368,0.51632 0.76778,1.0477 1.15142,1.593 0.38387,0.5452 0.76735,1.10497 1.15121,1.67811 0.38388,0.57298 0.76765,1.15968 1.15148,1.75907 0.38372,0.59972 0.76738,1.2123 1.1513,1.83711 0.38381,0.62456 0.76744,1.26163 1.15146,1.91002 0.38377,0.64837 0.76735,1.30856 1.15116,1.97956 0.38387,0.67068 0.76752,1.35238 1.15158,2.04424 0.38348,0.69162 0.76722,1.39357 1.15099,2.10497 0.38402,0.71129 0.76775,1.43195 1.15151,2.16095 0.38375,0.72925 0.76747,1.46717 1.1514,2.21276 0.3838,0.74595 0.76754,1.49944 1.1512,2.25996 0.38384,0.76077 0.76777,1.52839 1.15127,2.30269 0.38381,0.77414 0.76778,1.55462 1.15137,2.3406 0.38387,0.786 0.76762,1.5776 1.15141,2.37422 0.38376,0.79654 0.76762,1.59768 1.15145,2.40305 0.38365,0.80551 0.76752,1.61494 1.15142,2.42776 0.38362,0.81275 0.76727,1.62896 1.15115,2.44773 0.3838,0.81859 0.76747,1.64005 1.15133,2.46335 0.38367,0.82343 0.76763,1.64843 1.15135,2.47465 0.38375,0.82647 0.76746,1.65389 1.15134,2.48209 0.38375,0.82801 0.76762,1.65654 1.15143,2.48465 0.38391,0.8284 0.76751,1.6566 1.1511,2.48401 0.38412,0.82738 0.76772,1.65382 1.15145,2.47894 0.38382,0.82503 0.76752,1.64849 1.15131,2.47002 0.3838,0.82154 0.76756,1.64093 1.15139,2.45782 0.38366,0.81664 0.7676,1.63088 1.15139,2.44178 0.38378,0.8109 0.76755,1.61864 1.1513,2.42247 0.38378,0.80399 0.76756,1.60422 1.15141,2.40023 0.38365,0.79588 0.76753,1.58751 1.15131,2.37467 0.38364,0.7867 0.76738,1.56888 1.15112,2.34611 0.38404,0.77693 0.76761,1.54875 1.15156,2.31485 0.3837,0.76612 0.7676,1.52695 1.15155,2.28148 0.38355,0.75453 0.76721,1.50306 1.15093,2.24496 0.3841,0.74251 0.76774,1.47811 1.15132,2.20723 0.38377,0.72899 0.76779,1.45104 1.1515,2.1665 0.38378,0.7153 0.76751,1.42338 1.15126,2.12457 0.38387,0.70087 0.76764,1.39468 1.15144,2.08052 0.38384,0.68615 0.76758,1.36447 1.15125,2.03529 0.38381,0.67035 0.76758,1.33321 1.15152,1.98839 0.3835,0.65457 0.76731,1.30177 1.15114,1.94028 0.38383,0.63896 0.76759,1.26948 1.15147,1.89173 0.38374,0.62227 0.76753,1.23642 1.15139,1.84184 0.38362,0.60559 0.76753,1.20275 1.15131,1.79134 0.38381,0.5886 0.76735,1.16877 1.15117,1.74024 0.38403,0.57161 0.76757,1.1345 1.15145,1.68898 0.38365,0.55418 0.76754,1.09978 1.15121,1.63696 0.38381,0.53705 0.76765,1.06552 1.15139,1.58513 0.38383,0.52007 0.76767,1.03094 1.15147,1.53342 0.38381,0.50246 0.7674,0.99636 1.15123,1.4817 0.38384,0.48503 0.76763,0.96196 1.15126,1.43001 0.38378,0.46804 0.76776,0.92768 1.15143,1.37909 0.3839,0.45124 0.76738,0.89386 1.15137,1.32809 0.38373,0.43423 0.76749,0.86028 1.15132,1.27804 0.38367,0.41755 0.76775,0.82712 1.15139,1.22841 0.38366,0.40138 0.76751,0.79457 1.15138,1.17948 0.38375,0.38531 0.76742,0.76243 1.15113,1.13176 0.38383,0.36903 0.76779,0.73068 1.15141,1.08433 0.3838,0.35366 0.76744,0.69982 1.15138,1.0382 0.3838,0.33829 0.76759,0.66935 1.15132,0.99255 0.38382,0.3238 0.76748,0.64 1.15133,0.94884 0.38387,0.3091 0.76751,0.6107 1.15146,0.9056 0.38364,0.2947 0.76739,0.5826 1.15116,0.8632 0.38378,0.2809 0.76758,0.5553 1.15147,0.8226 0.38369,0.2675 0.76753,0.5284 1.15125,0.7828 0.38395,0.2545 0.76769,0.5023 1.15123,0.7442 0.38391,0.2418 0.76766,0.4775 1.1515,0.707 0.3837,0.2296 0.76754,0.4531 1.15126,0.6707 0.38375,0.2178 0.76762,0.43 1.15128,0.6361 0.3839,0.2063 0.7676,0.4069 1.15148,0.6023 0.38367,0.1954 0.76758,0.3854 1.15147,0.5701 0.38347,0.1846 0.76738,0.3641 1.15129,0.5387 0.38369,0.1739 0.76738,0.3441 1.15108,0.5089 0.38391,0.1656 0.76775,0.3247 1.15141,0.4803 0.38385,0.1567 0.76751,0.3061 1.15156,0.4525 0.38366,0.1458 0.76739,0.2884 1.15116,0.4263 0.38386,0.1352 0.76764,0.2713 1.15135,0.401 0.38376,0.1278 0.76747,0.2552 1.1514,0.377 0.38379,0.1218 0.76748,0.2399 1.15116,0.354 0.38381,0.1143 0.76775,0.2252 1.15139,0.3326 0.38378,0.1067 0.76767,0.211 1.15144,0.3115 0.38379,0.1005 0.76758,0.1975 1.15125,0.2916 0.38377,0.094 0.7676,0.185 1.15141,0.2728 0.38375,0.088 0.76752,0.1735 1.15137,0.2554 0.38372,0.082 0.76757,0.1625 1.15126,0.2383 0.38376,0.076 0.76758,0.1516 1.15141,0.2224 0.38369,0.073 0.76759,0.1383 1.15133,0.2073 0.3838,0.068 0.76738,0.1294 1.15128,0.1932 0.38383,0.064 0.76748,0.1218 1.15136,0.1795 0.38372,0.059 0.76754,0.1128 1.15129,0.1677 0.38389,0.054 0.76758,0.1053 1.15135,0.1566 0.38383,0.051 0.76747,0.097 1.1514,0.1428 0.38383,0.047 0.76764,0.091 1.15125,0.1322 0.3838,0.042 0.76767,0.085 1.15133,0.1232 0.38389,0.039 0.76759,0.077 1.15136,0.1143 0.38384,0.038 0.76764,0.073 1.15143,0.1052 0.38367,0.035 0.7674,0.068 1.15139,0.098 0.38354,0.032 0.7675,0.062 1.15121,0.091 0.38383,0.03 0.76756,0.057 1.15133,0.083 0.38372,0.027 0.76747,0.053 1.15146,0.077 0.38366,0.026 0.76738,0.048 1.15115,0.071 0.38401,0.024 0.76771,0.044 1.15145,0.067 0.38371,0.021 0.76753,0.041 1.15133,0.061 0.38385,0.02 0.76751,0.038 1.15129,0.056 0.38383,0.02 0.76758,0.035 1.15141,0.051 0.38367,0.018 0.76751,0.032 1.15132,0.045 0.38367,0.017 0.76753,0.029 1.15123,0.042 0.3839,0.017 0.76777,0.027 1.15145,0.039 0.38372,0.017 0.76756,0.024 1.15132,0.036 0.38375,0.015 0.76755,0.021 1.15131,0.033 0.38374,0.015 0.76765,0.021 1.15132,0.03 0.38381,0.015 0.76765,0.02 1.15128,0.027 0.38384,0.015 0.76754,0.018 1.1515,0.024 0.38372,0.015 0.76753,0.018 1.15134,0.024 0.3837,0 0.76745,0.017 1.15123,0.021 0.38381,0 0.7676,0.017 1.15144,0.02 0.38378,0 0.76745,0.017 1.15131,0.018 0.38383,0 0.76749,0.015 1.1512,0.018 0.38379,0 0.76771,0.015 1.15148,0.017 0.38374,0 0.76749,0.015 1.15119,0.017 0.38399,0 0.76769,0 1.15136,0.015 0.38382,0 0.7676,0 1.15143,0.015 0.38365,0 0.76758,0 1.15127,0.015 0.38383,0 0.76768,0 1.15144,0.015 0.38363,0 0.76761,0 1.15131,0 0.38377,0 0.76743,0 1.15127,0 0.38381,0 0.76769,0 1.15141,0 0.38375,0 0.76744,0 1.15128,0 0.38389,0 0.76744,0 1.15133,0 0.38386,0 0.76758,0 1.15151,0 0.38371,0 0.7674,0 1.15119,0 0.38374,0 0.7675,0 1.15133,0 0.38383,8e-4 0.76768,0 1.15129,0 0.38383,6e-4 0.76767,0 1.15133,0 0.38385,6e-4 0.76759,0 1.15151,0 0.38359,6e-4 0.76757,0 1.15121,0"
         style="fill:url(#pattern5770-747-273);fill-opacity:1;stroke:#000000;stroke-width:5.64936161;stroke-linecap:round;stroke-linejoin:round;stroke-miterlimit:4;stroke-dasharray:none;stroke-dashoffset:0;stroke-opacity:1"
         inkscape:connector-curvature="0" />
    </g>
  </g>
</svg>
